<?xml version="1.0" encoding="UTF-8"?>
<svg width="24px" height="24px" viewBox="0 0 24 24" version="1.1" xmlns="http://www.w3.org/2000/svg" xmlns:xlink="http://www.w3.org/1999/xlink">
    <title>mdpi/icons/communication/#-D/ic_Car</title>
    <g id="icons/communication/#-D/ic_Car" stroke="none" stroke-width="1" fill="none" fill-rule="evenodd">
        <path d="M21.6,16.2 L20.4,16.2 C20.4,17.8568543 19.0568543,19.2 17.4,19.2 C15.7431458,19.2 14.4,17.8568543 14.4,16.2 L8.99999999,16.2 C8.99999999,17.8568543 7.65685423,19.2 5.99999997,19.2 C4.34314572,19.2 2.99999996,17.8568543 2.99999996,16.2 L2.39999996,16.2 C1.7373351,16.1998145 1.19999877,15.6626649 1.19999877,15 L1.19999877,10.807008 L1.19999877,10.807008 C1.19963916,10.5506818 1.28185974,10.3010577 1.43447996,10.09512 L1.43447996,10.09512 L1.43673596,10.09212 C1.43795996,10.090464 1.43913596,10.088832 1.44040796,10.0872 L5.03663997,5.28407997 C5.26296706,4.97924953 5.62033507,4.79967523 5.99999997,4.79998904 L13.8,4.79998904 C14.1246931,4.79861797 14.4362088,4.92830368 14.664,5.15968797 L18.912,9.67199999 L21.843672,10.232112 L21.84384,10.232328 C22.4005164,10.3476846 22.7997701,10.837953 22.8,11.406456 L22.8,15 C22.8,15.6626649 22.2626649,16.1998145 21.6,16.2 L21.6,16.2 Z M6.17630398,6.09911998 L3.56011196,9.59930399 L9.28799999,9.59930399 L9.28799999,6.09599998 L6.17901598,6.09599998 L6.17630398,6.09911998 Z M13.76412,6.09671998 C13.7616578,6.09615211 13.7591342,6.09589412 13.756608,6.09594402 L11.088,6.09594402 L11.088,9.59930399 L17.055888,9.59930399 L13.76412,6.09671998 Z" fill="#000000"></path>
    </g>
</svg>